<svg width="19" height="19" viewBox="0 0 19 19" fill="none" xmlns="http://www.w3.org/2000/svg">
<path d="M12.0658 2.94579L12.2978 4.55208H15.4375C15.595 4.55208 15.746 4.61464 15.8573 4.72599C15.9687 4.83734 16.0313 4.98836 16.0313 5.14583C16.0313 5.30331 15.9687 5.45433 15.8573 5.56568C15.746 5.67703 15.595 5.73958 15.4375 5.73958H14.8287L14.1376 13.8027C14.0956 14.2935 14.0616 14.6973 14.007 15.0235C13.9515 15.3631 13.8668 15.6671 13.7014 15.9489C13.4416 16.3916 13.0553 16.7464 12.5923 16.9678C12.2978 17.1079 11.9874 17.1657 11.6438 17.1926C11.3137 17.2187 10.9092 17.2188 10.4168 17.2188H8.58325C8.09083 17.2188 7.68629 17.2187 7.35617 17.1926C7.01258 17.1657 6.70225 17.1079 6.40775 16.9678C5.94469 16.7464 5.55843 16.3916 5.29862 15.9489C5.13237 15.6671 5.04925 15.3631 4.99304 15.0235C4.93842 14.6965 4.90438 14.2935 4.86242 13.8027L4.17129 5.73958H3.5625C3.40503 5.73958 3.25401 5.67703 3.14266 5.56568C3.03131 5.45433 2.96875 5.30331 2.96875 5.14583C2.96875 4.98836 3.03131 4.83734 3.14266 4.72599C3.25401 4.61464 3.40503 4.55208 3.5625 4.55208H6.70225L6.93421 2.94579L6.94292 2.8975C7.087 2.27208 7.62375 1.78125 8.29667 1.78125H10.7033C11.3763 1.78125 11.913 2.27208 12.0571 2.8975L12.0658 2.94579ZM7.90163 4.55208H11.0976L10.8949 3.14608C10.8569 3.01388 10.7603 2.96875 10.7025 2.96875H8.29746C8.23967 2.96875 8.14308 3.01388 8.10508 3.14608L7.90163 4.55208ZM8.90625 8.3125C8.90625 8.15503 8.84369 8.00401 8.73234 7.89266C8.62099 7.78131 8.46997 7.71875 8.3125 7.71875C8.15503 7.71875 8.00401 7.78131 7.89266 7.89266C7.78131 8.00401 7.71875 8.15503 7.71875 8.3125V12.2708C7.71875 12.4283 7.78131 12.5793 7.89266 12.6907C8.00401 12.802 8.15503 12.8646 8.3125 12.8646C8.46997 12.8646 8.62099 12.802 8.73234 12.6907C8.84369 12.5793 8.90625 12.4283 8.90625 12.2708V8.3125ZM11.2813 8.3125C11.2813 8.15503 11.2187 8.00401 11.1073 7.89266C10.996 7.78131 10.845 7.71875 10.6875 7.71875C10.53 7.71875 10.379 7.78131 10.2677 7.89266C10.1563 8.00401 10.0938 8.15503 10.0938 8.3125V12.2708C10.0938 12.4283 10.1563 12.5793 10.2677 12.6907C10.379 12.802 10.53 12.8646 10.6875 12.8646C10.845 12.8646 10.996 12.802 11.1073 12.6907C11.2187 12.5793 11.2813 12.4283 11.2813 12.2708V8.3125Z" fill="white"/>
</svg>
